REM DIRINDEX 1\2\4\18,1\2\4\19,1\2\5\20,1\2\5\21,1\2\6\22,1\2\6\23,1\2\7\24,1\2\8\25,1\2\9\26,1\2\10\27,1\2\10\28,1\3\11\29,1\3\11\30,1\3\11\31,1\3\11\32,1\3\12\33,1\3\12\34,1\3\12\35,1\3\12\36,1\3\13\37,1\3\13\38,1\3\13\39,1\3\13\40,1\3\14\41,1\3\14\42,1\3\15\43,1\3\15\44,1\3\16\45,1\3\16\46,1\3\17\47,1\3\17\48,1\3\17\49,1\3\17\50
REM DIRNAME cjc135,folder01,folder02,folder03,folder04,folder05,folder06,folder07,folder08,folder09,folder10,folder11,folder12,folder13,folder14,folder15,folder16,folder17,folder18,folder19,folder20,folder21,folder22,folder23,folder24,folder25,folder26,folder27,folder28,folder29,folder30,folder31,folder32,folder33,folder34,folder35,folder36,folder37,folder38,folder39,folder40,folder41,folder42,folder43,folder44,folder45,folder46,folder47,folder48,folder49
TITLE ""
FILE "04.mp3" MP3
  TRACK 01 AUDIO
    TITLE "0:"
    INDEX 01 00:00:00
  TRACK 02 AUDIO
    TITLE "29:cjc135_3754"
    INDEX 01 00:00:15
  TRACK 03 AUDIO
    TITLE "0:"
    INDEX 01 00:01:26
  TRACK 04 AUDIO
    TITLE "30:cjc135_3755"
    INDEX 01 00:02:00
  TRACK 05 AUDIO
    TITLE "0:"
    INDEX 01 00:04:72
  TRACK 06 AUDIO
    TITLE "31:cjc135_3756"
    INDEX 01 00:05:22
  TRACK 07 AUDIO
    TITLE "0:"
    INDEX 01 00:07:66
  TRACK 08 AUDIO
    TITLE "32:cjc135_3757"
    INDEX 01 00:08:15
  TRACK 09 AUDIO
    TITLE "0:"
    INDEX 01 00:10:57
  TRACK 10 AUDIO
    TITLE "29:cjc135_3758"
    INDEX 01 00:11:56
  TRACK 11 AUDIO
    TITLE "0:"
    INDEX 01 00:12:63
  TRACK 12 AUDIO
    TITLE "30:cjc135_3759"
    INDEX 01 00:13:37
  TRACK 13 AUDIO
    TITLE "0:"
    INDEX 01 00:15:23
  TRACK 14 AUDIO
    TITLE "31:cjc135_3760"
    INDEX 01 00:15:50
  TRACK 15 AUDIO
    TITLE "0:"
    INDEX 01 00:17:45
  TRACK 16 AUDIO
    TITLE "32:cjc135_3761"
    INDEX 01 00:17:70
  TRACK 17 AUDIO
    TITLE "0:"
    INDEX 01 00:19:65
  TRACK 18 AUDIO
    TITLE "29:cjc135_3762"
    INDEX 01 00:20:65
  TRACK 19 AUDIO
    TITLE "0:"
    INDEX 01 00:21:72
  TRACK 20 AUDIO
    TITLE "30:cjc135_3763"
    INDEX 01 00:22:48
  TRACK 21 AUDIO
    TITLE "0:"
    INDEX 01 00:25:15
  TRACK 22 AUDIO
    TITLE "31:cjc135_3764"
    INDEX 01 00:25:41
  TRACK 23 AUDIO
    TITLE "0:"
    INDEX 01 00:27:59
  TRACK 24 AUDIO
    TITLE "32:cjc135_3765"
    INDEX 01 00:28:10
  TRACK 25 AUDIO
    TITLE "0:"
    INDEX 01 00:30:30
  TRACK 26 AUDIO
    TITLE "29:cjc135_3766"
    INDEX 01 00:31:29
  TRACK 27 AUDIO
    TITLE "0:"
    INDEX 01 00:32:33
  TRACK 28 AUDIO
    TITLE "30:cjc135_3767"
    INDEX 01 00:33:09
  TRACK 29 AUDIO
    TITLE "0:"
    INDEX 01 00:34:45
  TRACK 30 AUDIO
    TITLE "31:cjc135_3768"
    INDEX 01 00:34:69
  TRACK 31 AUDIO
    TITLE "0:"
    INDEX 01 00:36:33
  TRACK 32 AUDIO
    TITLE "32:cjc135_3769"
    INDEX 01 00:36:60
  TRACK 33 AUDIO
    TITLE "0:"
    INDEX 01 00:38:24
  TRACK 34 AUDIO
    TITLE "29:cjc135_3770"
    INDEX 01 00:39:25
  TRACK 35 AUDIO
    TITLE "0:"
    INDEX 01 00:40:38
  TRACK 36 AUDIO
    TITLE "30:cjc135_3771"
    INDEX 01 00:41:14
  TRACK 37 AUDIO
    TITLE "0:"
    INDEX 01 00:42:63
  TRACK 38 AUDIO
    TITLE "31:cjc135_3772"
    INDEX 01 00:43:15
  TRACK 39 AUDIO
    TITLE "0:"
    INDEX 01 00:44:69
  TRACK 40 AUDIO
    TITLE "32:cjc135_3773"
    INDEX 01 00:45:20
  TRACK 41 AUDIO
    TITLE "0:"
    INDEX 01 00:46:74
  TRACK 42 AUDIO
    TITLE "29:cjc135_3774"
    INDEX 01 00:48:00
  TRACK 43 AUDIO
    TITLE "0:"
    INDEX 01 00:49:12
  TRACK 44 AUDIO
    TITLE "30:cjc135_3775"
    INDEX 01 00:49:59
  TRACK 45 AUDIO
    TITLE "0:"
    INDEX 01 00:52:47
  TRACK 46 AUDIO
    TITLE "31:cjc135_3776"
    INDEX 01 00:52:73
  TRACK 47 AUDIO
    TITLE "0:"
    INDEX 01 00:55:53
  TRACK 48 AUDIO
    TITLE "32:cjc135_3777"
    INDEX 01 00:56:04
  TRACK 49 AUDIO
    TITLE "0:"
    INDEX 01 00:58:60
  TRACK 50 AUDIO
    TITLE "29:cjc135_3778"
    INDEX 01 00:59:63
  TRACK 51 AUDIO
    TITLE "0:"
    INDEX 01 01:00:72
  TRACK 52 AUDIO
    TITLE "30:cjc135_3779"
    INDEX 01 01:01:46
  TRACK 53 AUDIO
    TITLE "0:"
    INDEX 01 01:03:26
  TRACK 54 AUDIO
    TITLE "31:cjc135_3780"
    INDEX 01 01:03:49
  TRACK 55 AUDIO
    TITLE "0:"
    INDEX 01 01:05:36
  TRACK 56 AUDIO
    TITLE "32:cjc135_3781"
    INDEX 01 01:05:62
  TRACK 57 AUDIO
    TITLE "0:"
    INDEX 01 01:07:47
  TRACK 58 AUDIO
    TITLE "29:cjc135_3782"
    INDEX 01 01:08:50
  TRACK 59 AUDIO
    TITLE "0:"
    INDEX 01 01:09:56
  TRACK 60 AUDIO
    TITLE "30:cjc135_3783"
    INDEX 01 01:10:30
  TRACK 61 AUDIO
    TITLE "0:"
    INDEX 01 01:12:56
  TRACK 62 AUDIO
    TITLE "31:cjc135_3784"
    INDEX 01 01:13:06
  TRACK 63 AUDIO
    TITLE "0:"
    INDEX 01 01:15:11
  TRACK 64 AUDIO
    TITLE "32:cjc135_3785"
    INDEX 01 01:15:37
  TRACK 65 AUDIO
    TITLE "0:"
    INDEX 01 01:17:39
  TRACK 66 AUDIO
    TITLE "29:cjc135_3786"
    INDEX 01 01:18:43
  TRACK 67 AUDIO
    TITLE "0:"
    INDEX 01 01:19:38
  TRACK 68 AUDIO
    TITLE "30:cjc135_3787"
    INDEX 01 01:20:14
  TRACK 69 AUDIO
    TITLE "0:"
    INDEX 01 01:22:41
  TRACK 70 AUDIO
    TITLE "31:cjc135_3788"
    INDEX 01 01:22:68
  TRACK 71 AUDIO
    TITLE "0:"
    INDEX 01 01:24:39
  TRACK 72 AUDIO
    TITLE "32:cjc135_3789"
    INDEX 01 01:24:67
  TRACK 73 AUDIO
    TITLE "0:"
    INDEX 01 01:26:42
  TRACK 74 AUDIO
    TITLE "29:cjc135_3790"
    INDEX 01 01:27:42
  TRACK 75 AUDIO
    TITLE "0:"
    INDEX 01 01:28:45
  TRACK 76 AUDIO
    TITLE "30:cjc135_3791"
    INDEX 01 01:29:23
  TRACK 77 AUDIO
    TITLE "0:"
    INDEX 01 01:31:51
  TRACK 78 AUDIO
    TITLE "31:cjc135_3792"
    INDEX 01 01:32:06
  TRACK 79 AUDIO
    TITLE "0:"
    INDEX 01 01:33:74
  TRACK 80 AUDIO
    TITLE "32:cjc135_3793"
    INDEX 01 01:34:30
  TRACK 81 AUDIO
    TITLE "0:"
    INDEX 01 01:36:21
  TRACK 82 AUDIO
    TITLE "29:cjc135_3794"
    INDEX 01 01:37:22
  TRACK 83 AUDIO
    TITLE "0:"
    INDEX 01 01:38:26
  TRACK 84 AUDIO
    TITLE "30:cjc135_3795"
    INDEX 01 01:39:04
  TRACK 85 AUDIO
    TITLE "0:"
    INDEX 01 01:41:20
  TRACK 86 AUDIO
    TITLE "31:cjc135_3796"
    INDEX 01 01:41:46
  TRACK 87 AUDIO
    TITLE "0:"
    INDEX 01 01:43:49
  TRACK 88 AUDIO
    TITLE "32:cjc135_3797"
    INDEX 01 01:44:11
  TRACK 89 AUDIO
    TITLE "0:"
    INDEX 01 01:46:12
  TRACK 90 AUDIO
    TITLE "29:cjc135_3798"
    INDEX 01 01:47:25
  TRACK 91 AUDIO
    TITLE "0:"
    INDEX 01 01:48:36
  TRACK 92 AUDIO
    TITLE "30:cjc135_3799"
    INDEX 01 01:49:10
  TRACK 93 AUDIO
    TITLE "0:"
    INDEX 01 01:51:66
  TRACK 94 AUDIO
    TITLE "31:cjc135_3800"
    INDEX 01 01:52:16
  TRACK 95 AUDIO
    TITLE "0:"
    INDEX 01 01:54:66
  TRACK 96 AUDIO
    TITLE "32:cjc135_3801"
    INDEX 01 01:55:16
  TRACK 97 AUDIO
    TITLE "0:"
    INDEX 01 01:57:66
  TRACK 98 AUDIO
    TITLE "29:cjc135_3802"
    INDEX 01 01:58:68
  TRACK 99 AUDIO
    TITLE "0:"
    INDEX 01 02:00:00
  TRACK 100 AUDIO
    TITLE "30:cjc135_3803"
    INDEX 01 02:00:53
  TRACK 101 AUDIO
    TITLE "0:"
    INDEX 01 02:02:42
  TRACK 102 AUDIO
    TITLE "31:cjc135_3804"
    INDEX 01 02:02:69
  TRACK 103 AUDIO
    TITLE "0:"
    INDEX 01 02:04:60
  TRACK 104 AUDIO
    TITLE "32:cjc135_3805"
    INDEX 01 02:05:09
  TRACK 105 AUDIO
    TITLE "0:"
    INDEX 01 02:07:00
  TRACK 106 AUDIO
    TITLE "29:cjc135_3806"
    INDEX 01 02:08:00
  TRACK 107 AUDIO
    TITLE "0:"
    INDEX 01 02:09:03
  TRACK 108 AUDIO
    TITLE "30:cjc135_3807"
    INDEX 01 02:09:52
  TRACK 109 AUDIO
    TITLE "0:"
    INDEX 01 02:11:00
  TRACK 110 AUDIO
    TITLE "31:cjc135_3808"
    INDEX 01 02:11:29
  TRACK 111 AUDIO
    TITLE "0:"
    INDEX 01 02:12:54
  TRACK 112 AUDIO
    TITLE "32:cjc135_3809"
    INDEX 01 02:13:05
  TRACK 113 AUDIO
    TITLE "0:"
    INDEX 01 02:14:30
  TRACK 114 AUDIO
    TITLE "29:cjc135_3810"
    INDEX 01 02:15:29
  TRACK 115 AUDIO
    TITLE "0:"
    INDEX 01 02:16:42
  TRACK 116 AUDIO
    TITLE "30:cjc135_3811"
    INDEX 01 02:17:16
  TRACK 117 AUDIO
    TITLE "0:"
    INDEX 01 02:18:57
  TRACK 118 AUDIO
    TITLE "31:cjc135_3812"
    INDEX 01 02:19:05
  TRACK 119 AUDIO
    TITLE "0:"
    INDEX 01 02:20:38
  TRACK 120 AUDIO
    TITLE "32:cjc135_3813"
    INDEX 01 02:20:65
  TRACK 121 AUDIO
    TITLE "0:"
    INDEX 01 02:22:23
  TRACK 122 AUDIO
    TITLE "29:cjc135_3814"
    INDEX 01 02:23:25
  TRACK 123 AUDIO
    TITLE "0:"
    INDEX 01 02:24:36
  TRACK 124 AUDIO
    TITLE "30:cjc135_3815"
    INDEX 01 02:25:10
  TRACK 125 AUDIO
    TITLE "0:"
    INDEX 01 02:28:02
  TRACK 126 AUDIO
    TITLE "31:cjc135_3816"
    INDEX 01 02:28:30
  TRACK 127 AUDIO
    TITLE "0:"
    INDEX 01 02:30:44
  TRACK 128 AUDIO
    TITLE "32:cjc135_3817"
    INDEX 01 02:30:72
  TRACK 129 AUDIO
    TITLE "0:"
    INDEX 01 02:33:15
  TRACK 130 AUDIO
    TITLE "29:cjc135_3818"
    INDEX 01 02:34:15
  TRACK 131 AUDIO
    TITLE "0:"
    INDEX 01 02:35:20
  TRACK 132 AUDIO
    TITLE "30:cjc135_3819"
    INDEX 01 02:35:73
  TRACK 133 AUDIO
    TITLE "0:"
    INDEX 01 02:38:52
  TRACK 134 AUDIO
    TITLE "31:cjc135_3820"
    INDEX 01 02:39:00
  TRACK 135 AUDIO
    TITLE "0:"
    INDEX 01 02:41:44
  TRACK 136 AUDIO
    TITLE "32:cjc135_3821"
    INDEX 01 02:41:69
  TRACK 137 AUDIO
    TITLE "0:"
    INDEX 01 02:44:40
  TRACK 138 AUDIO
    TITLE "29:cjc135_3822"
    INDEX 01 02:45:40
  TRACK 139 AUDIO
    TITLE "0:"
    INDEX 01 02:46:35
  TRACK 140 AUDIO
    TITLE "30:cjc135_3823"
    INDEX 01 02:47:09
  TRACK 141 AUDIO
    TITLE "0:"
    INDEX 01 02:49:45
  TRACK 142 AUDIO
    TITLE "31:cjc135_3824"
    INDEX 01 02:49:69
  TRACK 143 AUDIO
    TITLE "0:"
    INDEX 01 02:51:74
  TRACK 144 AUDIO
    TITLE "32:cjc135_3825"
    INDEX 01 02:52:24
  TRACK 145 AUDIO
    TITLE "0:"
    INDEX 01 02:54:29
  TRACK 146 AUDIO
    TITLE "29:cjc135_3826"
    INDEX 01 02:55:30
  TRACK 147 AUDIO
    TITLE "0:"
    INDEX 01 02:56:30
  TRACK 148 AUDIO
    TITLE "30:cjc135_3827"
    INDEX 01 02:57:08
  TRACK 149 AUDIO
    TITLE "0:"
    INDEX 01 02:59:20
  TRACK 150 AUDIO
    TITLE "31:cjc135_3828"
    INDEX 01 02:59:48
  TRACK 151 AUDIO
    TITLE "0:"
    INDEX 01 03:01:45
  TRACK 152 AUDIO
    TITLE "32:cjc135_3829"
    INDEX 01 03:01:72
  TRACK 153 AUDIO
    TITLE "0:"
    INDEX 01 03:03:71
  TRACK 154 AUDIO
    TITLE "29:cjc135_3830"
    INDEX 01 03:04:71
  TRACK 155 AUDIO
    TITLE "0:"
    INDEX 01 03:06:03
  TRACK 156 AUDIO
    TITLE "30:cjc135_3831"
    INDEX 01 03:06:52
  TRACK 157 AUDIO
    TITLE "0:"
    INDEX 01 03:08:41
  TRACK 158 AUDIO
    TITLE "31:cjc135_3832"
    INDEX 01 03:08:70
  TRACK 159 AUDIO
    TITLE "0:"
    INDEX 01 03:10:71
  TRACK 160 AUDIO
    TITLE "32:cjc135_3833"
    INDEX 01 03:11:22
  TRACK 161 AUDIO
    TITLE "0:"
    INDEX 01 03:13:24
  TRACK 162 AUDIO
    TITLE "29:cjc135_3834"
    INDEX 01 03:14:24
  TRACK 163 AUDIO
    TITLE "0:"
    INDEX 01 03:15:27
  TRACK 164 AUDIO
    TITLE "30:cjc135_3835"
    INDEX 01 03:16:01
  TRACK 165 AUDIO
    TITLE "0:"
    INDEX 01 03:18:28
  TRACK 166 AUDIO
    TITLE "31:cjc135_3836"
    INDEX 01 03:18:53
  TRACK 167 AUDIO
    TITLE "0:"
    INDEX 01 03:21:45
  TRACK 168 AUDIO
    TITLE "32:cjc135_3837"
    INDEX 01 03:21:71
  TRACK 169 AUDIO
    TITLE "0:"
    INDEX 01 03:24:63
  TRACK 170 AUDIO
    TITLE "29:cjc135_3838"
    INDEX 01 03:25:63
  TRACK 171 AUDIO
    TITLE "0:"
    INDEX 01 03:26:66
  TRACK 172 AUDIO
    TITLE "30:cjc135_3839"
    INDEX 01 03:27:40
  TRACK 173 AUDIO
    TITLE "0:"
    INDEX 01 03:29:33
  TRACK 174 AUDIO
    TITLE "31:cjc135_3840"
    INDEX 01 03:29:59
  TRACK 175 AUDIO
    TITLE "0:"
    INDEX 01 03:32:00
  TRACK 176 AUDIO
    TITLE "32:cjc135_3841"
    INDEX 01 03:32:24
  TRACK 177 AUDIO
    TITLE "0:"
    INDEX 01 03:34:38
  TRACK 178 AUDIO
    TITLE "29:cjc135_3842"
    INDEX 01 03:35:40
  TRACK 179 AUDIO
    TITLE "0:"
    INDEX 01 03:36:59
  TRACK 180 AUDIO
    TITLE "30:cjc135_3843"
    INDEX 01 03:37:37
  TRACK 181 AUDIO
    TITLE "0:"
    INDEX 01 03:40:57
  TRACK 182 AUDIO
    TITLE "31:cjc135_3844"
    INDEX 01 03:41:05
  TRACK 183 AUDIO
    TITLE "0:"
    INDEX 01 03:43:51
  TRACK 184 AUDIO
    TITLE "32:cjc135_3845"
    INDEX 01 03:44:00
  TRACK 185 AUDIO
    TITLE "0:"
    INDEX 01 03:46:45
  TRACK 186 AUDIO
    TITLE "29:cjc135_3846"
    INDEX 01 03:47:45
  TRACK 187 AUDIO
    TITLE "0:"
    INDEX 01 03:48:60
  TRACK 188 AUDIO
    TITLE "30:cjc135_3847"
    INDEX 01 03:49:34
  TRACK 189 AUDIO
    TITLE "0:"
    INDEX 01 03:51:27
  TRACK 190 AUDIO
    TITLE "31:cjc135_3848"
    INDEX 01 03:51:52
  TRACK 191 AUDIO
    TITLE "0:"
    INDEX 01 03:53:36
  TRACK 192 AUDIO
    TITLE "32:cjc135_3849"
    INDEX 01 03:53:61
  TRACK 193 AUDIO
    TITLE "0:"
    INDEX 01 03:55:48
  TRACK 194 AUDIO
    TITLE "29:cjc135_3850"
    INDEX 01 03:56:48
  TRACK 195 AUDIO
    TITLE "0:"
    INDEX 01 03:58:02
  TRACK 196 AUDIO
    TITLE "30:cjc135_3851"
    INDEX 01 03:58:51
  TRACK 197 AUDIO
    TITLE "0:"
    INDEX 01 04:00:32
  TRACK 198 AUDIO
    TITLE "31:cjc135_3852"
    INDEX 01 04:00:59
  TRACK 199 AUDIO
    TITLE "0:"
    INDEX 01 04:02:74
  TRACK 200 AUDIO
    TITLE "32:cjc135_3853"
    INDEX 01 04:03:24
  TRACK 201 AUDIO
    TITLE "0:"
    INDEX 01 04:05:39
  TRACK 202 AUDIO
    TITLE "29:cjc135_3854"
    INDEX 01 04:06:40
  TRACK 203 AUDIO
    TITLE "0:"
    INDEX 01 04:07:26
  TRACK 204 AUDIO
    TITLE "30:cjc135_3855"
    INDEX 01 04:08:02
  TRACK 205 AUDIO
    TITLE "0:"
    INDEX 01 04:10:03
  TRACK 206 AUDIO
    TITLE "31:cjc135_3856"
    INDEX 01 04:10:26
  TRACK 207 AUDIO
    TITLE "0:"
    INDEX 01 04:12:15
  TRACK 208 AUDIO
    TITLE "32:cjc135_3857"
    INDEX 01 04:12:39
  TRACK 209 AUDIO
    TITLE "0:"
    INDEX 01 04:14:26
  TRACK 210 AUDIO
    TITLE "29:cjc135_3858"
    INDEX 01 04:15:27
  TRACK 211 AUDIO
    TITLE "0:"
    INDEX 01 04:16:52
  TRACK 212 AUDIO
    TITLE "30:cjc135_3859"
    INDEX 01 04:17:26
  TRACK 213 AUDIO
    TITLE "0:"
    INDEX 01 04:19:72
  TRACK 214 AUDIO
    TITLE "31:cjc135_3860"
    INDEX 01 04:20:33
  TRACK 215 AUDIO
    TITLE "0:"
    INDEX 01 04:23:11
  TRACK 216 AUDIO
    TITLE "32:cjc135_3861"
    INDEX 01 04:23:37
  TRACK 217 AUDIO
    TITLE "0:"
    INDEX 01 04:26:18
  TRACK 218 AUDIO
    TITLE "29:cjc135_3862"
    INDEX 01 04:27:17
  TRACK 219 AUDIO
    TITLE "0:"
    INDEX 01 04:28:32
  TRACK 220 AUDIO
    TITLE "30:cjc135_3863"
    INDEX 01 04:29:10
  TRACK 221 AUDIO
    TITLE "0:"
    INDEX 01 04:31:11
  TRACK 222 AUDIO
    TITLE "31:cjc135_3864"
    INDEX 01 04:31:36
  TRACK 223 AUDIO
    TITLE "0:"
    INDEX 01 04:33:47
  TRACK 224 AUDIO
    TITLE "32:cjc135_3865"
    INDEX 01 04:33:72
  TRACK 225 AUDIO
    TITLE "0:"
    INDEX 01 04:36:06
  TRACK 226 AUDIO
    TITLE "29:cjc135_3866"
    INDEX 01 04:37:08
  TRACK 227 AUDIO
    TITLE "0:"
    INDEX 01 04:38:11
  TRACK 228 AUDIO
    TITLE "30:cjc135_3867"
    INDEX 01 04:38:62
  TRACK 229 AUDIO
    TITLE "0:"
    INDEX 01 04:40:39
  TRACK 230 AUDIO
    TITLE "31:cjc135_3868"
    INDEX 01 04:40:65
  TRACK 231 AUDIO
    TITLE "0:"
    INDEX 01 04:42:42
  TRACK 232 AUDIO
    TITLE "32:cjc135_3869"
    INDEX 01 04:42:67
  TRACK 233 AUDIO
    TITLE "0:"
    INDEX 01 04:44:45
  TRACK 234 AUDIO
    TITLE "29:cjc135_3870"
    INDEX 01 04:45:44
  TRACK 235 AUDIO
    TITLE "0:"
    INDEX 01 04:46:57
  TRACK 236 AUDIO
    TITLE "30:cjc135_3871"
    INDEX 01 04:47:31
  TRACK 237 AUDIO
    TITLE "0:"
    INDEX 01 04:49:50
  TRACK 238 AUDIO
    TITLE "31:cjc135_3872"
    INDEX 01 04:50:02
  TRACK 239 AUDIO
    TITLE "0:"
    INDEX 01 04:52:36
  TRACK 240 AUDIO
    TITLE "32:cjc135_3873"
    INDEX 01 04:52:60
  TRACK 241 AUDIO
    TITLE "0:"
    INDEX 01 04:55:17
  TRACK 242 AUDIO
    TITLE "29:cjc135_3874"
    INDEX 01 04:56:17
  TRACK 243 AUDIO
    TITLE "0:"
    INDEX 01 04:57:20
  TRACK 244 AUDIO
    TITLE "30:cjc135_3875"
    INDEX 01 04:57:73
  TRACK 245 AUDIO
    TITLE "0:"
    INDEX 01 04:59:44
  TRACK 246 AUDIO
    TITLE "31:cjc135_3876"
    INDEX 01 04:59:70
  TRACK 247 AUDIO
    TITLE "0:"
    INDEX 01 05:01:37
  TRACK 248 AUDIO
    TITLE "32:cjc135_3877"
    INDEX 01 05:01:61
  TRACK 249 AUDIO
    TITLE "0:"
    INDEX 01 05:03:27
  TRACK 250 AUDIO
    TITLE "29:cjc135_3878"
    INDEX 01 05:04:28
  TRACK 251 AUDIO
    TITLE "0:"
    INDEX 01 05:05:45
  TRACK 252 AUDIO
    TITLE "30:cjc135_3879"
    INDEX 01 05:06:19
  TRACK 253 AUDIO
    TITLE "0:"
    INDEX 01 05:08:06
  TRACK 254 AUDIO
    TITLE "31:cjc135_3880"
    INDEX 01 05:08:30
  TRACK 255 AUDIO
    TITLE "0:"
    INDEX 01 05:10:03
  TRACK 256 AUDIO
    TITLE "32:cjc135_3881"
    INDEX 01 05:10:30
  TRACK 257 AUDIO
    TITLE "0:"
    INDEX 01 05:12:02
  TRACK 258 AUDIO
    TITLE "29:cjc135_3882"
    INDEX 01 05:13:05
  TRACK 259 AUDIO
    TITLE "0:"
    INDEX 01 05:14:15
  TRACK 260 AUDIO
    TITLE "30:cjc135_3883"
    INDEX 01 05:14:66
  TRACK 261 AUDIO
    TITLE "0:"
    INDEX 01 05:17:66
  TRACK 262 AUDIO
    TITLE "31:cjc135_3884"
    INDEX 01 05:18:16
  TRACK 263 AUDIO
    TITLE "0:"
    INDEX 01 05:20:54
  TRACK 264 AUDIO
    TITLE "32:cjc135_3885"
    INDEX 01 05:21:05
  TRACK 265 AUDIO
    TITLE "0:"
    INDEX 01 05:23:45
  TRACK 266 AUDIO
    TITLE "29:cjc135_3886"
    INDEX 01 05:24:42
  TRACK 267 AUDIO
    TITLE "0:"
    INDEX 01 05:25:38
  TRACK 268 AUDIO
    TITLE "30:cjc135_3887"
    INDEX 01 05:26:14
  TRACK 269 AUDIO
    TITLE "0:"
    INDEX 01 05:29:26
  TRACK 270 AUDIO
    TITLE "31:cjc135_3888"
    INDEX 01 05:29:51
  TRACK 271 AUDIO
    TITLE "0:"
    INDEX 01 05:31:54
  TRACK 272 AUDIO
    TITLE "32:cjc135_3889"
    INDEX 01 05:32:07
  TRACK 273 AUDIO
    TITLE "0:"
    INDEX 01 05:34:11
  TRACK 274 AUDIO
    TITLE "29:cjc135_3890"
    INDEX 01 05:35:13
  TRACK 275 AUDIO
    TITLE "0:"
    INDEX 01 05:36:18
  TRACK 276 AUDIO
    TITLE "30:cjc135_3891"
    INDEX 01 05:36:67
  TRACK 277 AUDIO
    TITLE "0:"
    INDEX 01 05:40:06
  TRACK 278 AUDIO
    TITLE "31:cjc135_3892"
    INDEX 01 05:40:30
  TRACK 279 AUDIO
    TITLE "0:"
    INDEX 01 05:42:44
  TRACK 280 AUDIO
    TITLE "32:cjc135_3893"
    INDEX 01 05:42:72
  TRACK 281 AUDIO
    TITLE "0:"
    INDEX 01 05:45:15
  TRACK 282 AUDIO
    TITLE "29:cjc135_3894"
    INDEX 01 05:46:15
  TRACK 283 AUDIO
    TITLE "0:"
    INDEX 01 05:47:12
  TRACK 284 AUDIO
    TITLE "30:cjc135_3895"
    INDEX 01 05:47:65
  TRACK 285 AUDIO
    TITLE "0:"
    INDEX 01 05:49:72
  TRACK 286 AUDIO
    TITLE "31:cjc135_3896"
    INDEX 01 05:50:20
  TRACK 287 AUDIO
    TITLE "0:"
    INDEX 01 05:52:60
  TRACK 288 AUDIO
    TITLE "32:cjc135_3897"
    INDEX 01 05:53:09
  TRACK 289 AUDIO
    TITLE "0:"
    INDEX 01 05:55:51
  TRACK 290 AUDIO
    TITLE "29:cjc135_3898"
    INDEX 01 05:56:50
  TRACK 291 AUDIO
    TITLE "0:"
    INDEX 01 05:57:52
  TRACK 292 AUDIO
    TITLE "30:cjc135_3899"
    INDEX 01 05:58:26
  TRACK 293 AUDIO
    TITLE "0:"
    INDEX 01 06:01:47
  TRACK 294 AUDIO
    TITLE "31:cjc135_3900"
    INDEX 01 06:01:69
  TRACK 295 AUDIO
    TITLE "0:"
    INDEX 01 06:04:14
  TRACK 296 AUDIO
    TITLE "32:cjc135_3901"
    INDEX 01 06:04:38
  TRACK 297 AUDIO
    TITLE "0:"
    INDEX 01 06:06:56
  TRACK 298 AUDIO
    TITLE "29:cjc135_3902"
    INDEX 01 06:07:54
  TRACK 299 AUDIO
    TITLE "0:"
    INDEX 01 06:08:53
  TRACK 300 AUDIO
    TITLE "30:cjc135_3903"
    INDEX 01 06:09:27
  TRACK 301 AUDIO
    TITLE "0:"
    INDEX 01 06:10:72
  TRACK 302 AUDIO
    TITLE "31:cjc135_3904"
    INDEX 01 06:11:24
  TRACK 303 AUDIO
    TITLE "0:"
    INDEX 01 06:13:15
  TRACK 304 AUDIO
    TITLE "32:cjc135_3905"
    INDEX 01 06:13:39
  TRACK 305 AUDIO
    TITLE "0:"
    INDEX 01 06:15:30
  TRACK 306 AUDIO
    TITLE "29:cjc135_3906"
    INDEX 01 06:16:29
  TRACK 307 AUDIO
    TITLE "0:"
    INDEX 01 06:17:41
  TRACK 308 AUDIO
    TITLE "30:cjc135_3907"
    INDEX 01 06:18:15
  TRACK 309 AUDIO
    TITLE "0:"
    INDEX 01 06:19:53
  TRACK 310 AUDIO
    TITLE "31:cjc135_3908"
    INDEX 01 06:20:04
  TRACK 311 AUDIO
    TITLE "0:"
    INDEX 01 06:21:48
  TRACK 312 AUDIO
    TITLE "32:cjc135_3909"
    INDEX 01 06:21:72
  TRACK 313 AUDIO
    TITLE "0:"
    INDEX 01 06:23:39
  TRACK 314 AUDIO
    TITLE "29:cjc135_3910"
    INDEX 01 06:24:41
  TRACK 315 AUDIO
    TITLE "0:"
    INDEX 01 06:25:50
  TRACK 316 AUDIO
    TITLE "30:cjc135_3911"
    INDEX 01 06:26:28
  TRACK 317 AUDIO
    TITLE "0:"
    INDEX 01 06:28:05
  TRACK 318 AUDIO
    TITLE "31:cjc135_3912"
    INDEX 01 06:28:33
  TRACK 319 AUDIO
    TITLE "0:"
    INDEX 01 06:30:12
  TRACK 320 AUDIO
    TITLE "32:cjc135_3913"
    INDEX 01 06:30:35
  TRACK 321 AUDIO
    TITLE "0:"
    INDEX 01 06:32:11
  TRACK 322 AUDIO
    TITLE "29:cjc135_3914"
    INDEX 01 06:33:12
  TRACK 323 AUDIO
    TITLE "0:"
    INDEX 01 06:34:23
  TRACK 324 AUDIO
    TITLE "30:cjc135_3915"
    INDEX 01 06:34:74
  TRACK 325 AUDIO
    TITLE "0:"
    INDEX 01 06:37:12
  TRACK 326 AUDIO
    TITLE "31:cjc135_3916"
    INDEX 01 06:37:39
  TRACK 327 AUDIO
    TITLE "0:"
    INDEX 01 06:39:50
  TRACK 328 AUDIO
    TITLE "32:cjc135_3917"
    INDEX 01 06:40:02
  TRACK 329 AUDIO
    TITLE "0:"
    INDEX 01 06:42:15
  TRACK 330 AUDIO
    TITLE "29:cjc135_3918"
    INDEX 01 06:43:15
  TRACK 331 AUDIO
    TITLE "0:"
    INDEX 01 06:44:34
  TRACK 332 AUDIO
    TITLE "30:cjc135_3919"
    INDEX 01 06:45:08
  TRACK 333 AUDIO
    TITLE "0:"
    INDEX 01 06:46:60
  TRACK 334 AUDIO
    TITLE "31:cjc135_3920"
    INDEX 01 06:47:12
  TRACK 335 AUDIO
    TITLE "0:"
    INDEX 01 06:49:15
  TRACK 336 AUDIO
    TITLE "32:cjc135_3921"
    INDEX 01 06:49:41
  TRACK 337 AUDIO
    TITLE "0:"
    INDEX 01 06:51:43
  TRACK 338 AUDIO
    TITLE "29:cjc135_3922"
    INDEX 01 06:52:43
  TRACK 339 AUDIO
    TITLE "0:"
    INDEX 01 06:53:48
  TRACK 340 AUDIO
    TITLE "30:cjc135_3923"
    INDEX 01 06:54:24
  TRACK 341 AUDIO
    TITLE "0:"
    INDEX 01 06:56:50
  TRACK 342 AUDIO
    TITLE "31:cjc135_3924"
    INDEX 01 06:56:72
  TRACK 343 AUDIO
    TITLE "0:"
    INDEX 01 06:59:10
  TRACK 344 AUDIO
    TITLE "32:cjc135_3925"
    INDEX 01 06:59:35
  TRACK 345 AUDIO
    TITLE "0:"
    INDEX 01 07:01:48
  TRACK 346 AUDIO
    TITLE "29:cjc135_3926"
    INDEX 01 07:02:47
  TRACK 347 AUDIO
    TITLE "0:"
    INDEX 01 07:03:51
  TRACK 348 AUDIO
    TITLE "30:cjc135_3927"
    INDEX 01 07:04:24
  TRACK 349 AUDIO
    TITLE "0:"
    INDEX 01 07:07:44
  TRACK 350 AUDIO
    TITLE "31:cjc135_3928"
    INDEX 01 07:07:70
  TRACK 351 AUDIO
    TITLE "0:"
    INDEX 01 07:10:21
  TRACK 352 AUDIO
    TITLE "32:cjc135_3929"
    INDEX 01 07:10:47
  TRACK 353 AUDIO
    TITLE "0:"
    INDEX 01 07:13:00
  TRACK 354 AUDIO
    TITLE "29:cjc135_3930"
    INDEX 01 07:13:74
  TRACK 355 AUDIO
    TITLE "0:"
    INDEX 01 07:15:13
  TRACK 356 AUDIO
    TITLE "30:cjc135_3931"
    INDEX 01 07:15:62
  TRACK 357 AUDIO
    TITLE "0:"
    INDEX 01 07:17:74
  TRACK 358 AUDIO
    TITLE "31:cjc135_3932"
    INDEX 01 07:18:30
  TRACK 359 AUDIO
    TITLE "0:"
    INDEX 01 07:20:33
  TRACK 360 AUDIO
    TITLE "32:cjc135_3933"
    INDEX 01 07:20:57
  TRACK 361 AUDIO
    TITLE "0:"
    INDEX 01 07:22:60
  TRACK 362 AUDIO
    TITLE "29:cjc135_3934"
    INDEX 01 07:23:59
  TRACK 363 AUDIO
    TITLE "0:"
    INDEX 01 07:25:03
  TRACK 364 AUDIO
    TITLE "30:cjc135_3935"
    INDEX 01 07:25:52
  TRACK 365 AUDIO
    TITLE "0:"
    INDEX 01 07:27:57
  TRACK 366 AUDIO
    TITLE "31:cjc135_3936"
    INDEX 01 07:28:09
  TRACK 367 AUDIO
    TITLE "0:"
    INDEX 01 07:30:14
  TRACK 368 AUDIO
    TITLE "32:cjc135_3937"
    INDEX 01 07:30:40
  TRACK 369 AUDIO
    TITLE "0:"
    INDEX 01 07:32:44
  TRACK 370 AUDIO
    TITLE "29:cjc135_3938"
    INDEX 01 07:33:44
  TRACK 371 AUDIO
    TITLE "0:"
    INDEX 01 07:34:53
  TRACK 372 AUDIO
    TITLE "30:cjc135_3939"
    INDEX 01 07:35:29
  TRACK 373 AUDIO
    TITLE "0:"
    INDEX 01 07:37:34
  TRACK 374 AUDIO
    TITLE "31:cjc135_3940"
    INDEX 01 07:37:57
  TRACK 375 AUDIO
    TITLE "0:"
    INDEX 01 07:39:35
  TRACK 376 AUDIO
    TITLE "32:cjc135_3941"
    INDEX 01 07:39:58
  TRACK 377 AUDIO
    TITLE "0:"
    INDEX 01 07:41:33
  TRACK 378 AUDIO
    TITLE "29:cjc135_3942"
    INDEX 01 07:42:33
  TRACK 379 AUDIO
    TITLE "0:"
    INDEX 01 07:43:28
  TRACK 380 AUDIO
    TITLE "30:cjc135_3943"
    INDEX 01 07:44:04
  TRACK 381 AUDIO
    TITLE "0:"
    INDEX 01 07:46:05
  TRACK 382 AUDIO
    TITLE "31:cjc135_3944"
    INDEX 01 07:46:33
  TRACK 383 AUDIO
    TITLE "0:"
    INDEX 01 07:48:69
  TRACK 384 AUDIO
    TITLE "32:cjc135_3945"
    INDEX 01 07:49:17
  TRACK 385 AUDIO
    TITLE "0:"
    INDEX 01 07:51:53
  TRACK 386 AUDIO
    TITLE "29:cjc135_3946"
    INDEX 01 07:52:53
  TRACK 387 AUDIO
    TITLE "0:"
    INDEX 01 07:53:54
  TRACK 388 AUDIO
    TITLE "30:cjc135_3947"
    INDEX 01 07:54:30
  TRACK 389 AUDIO
    TITLE "0:"
    INDEX 01 07:56:04
  TRACK 390 AUDIO
    TITLE "31:cjc135_3948"
    INDEX 01 07:56:29
  TRACK 391 AUDIO
    TITLE "0:"
    INDEX 01 07:58:06
  TRACK 392 AUDIO
    TITLE "32:cjc135_3949"
    INDEX 01 07:58:32
  TRACK 393 AUDIO
    TITLE "0:"
    INDEX 01 08:00:09
  TRACK 394 AUDIO
    TITLE "29:cjc135_3950"
    INDEX 01 08:01:09
  TRACK 395 AUDIO
    TITLE "0:"
    INDEX 01 08:02:24
  TRACK 396 AUDIO
    TITLE "30:cjc135_3951"
    INDEX 01 08:03:00
  TRACK 397 AUDIO
    TITLE "0:"
    INDEX 01 08:05:18
  TRACK 398 AUDIO
    TITLE "31:cjc135_3952"
    INDEX 01 08:05:52
  TRACK 399 AUDIO
    TITLE "0:"
    INDEX 01 08:07:60
  TRACK 400 AUDIO
    TITLE "32:cjc135_3953"
    INDEX 01 08:08:07
  TRACK 401 AUDIO
    TITLE "0:"
    INDEX 01 08:10:14
  TRACK 402 AUDIO
    TITLE "29:cjc135_3954"
    INDEX 01 08:11:13
  TRACK 403 AUDIO
    TITLE "0:"
    INDEX 01 08:12:48
  TRACK 404 AUDIO
    TITLE "30:cjc135_3955"
    INDEX 01 08:13:22
  TRACK 405 AUDIO
    TITLE "0:"
    INDEX 01 08:15:36
  TRACK 406 AUDIO
    TITLE "31:cjc135_3956"
    INDEX 01 08:15:64
  TRACK 407 AUDIO
    TITLE "0:"
    INDEX 01 08:18:50
  TRACK 408 AUDIO
    TITLE "32:cjc135_3957"
    INDEX 01 08:19:03
  TRACK 409 AUDIO
    TITLE "0:"
    INDEX 01 08:21:64
  TRACK 410 AUDIO
    TITLE "29:cjc135_3958"
    INDEX 01 08:22:64
  TRACK 411 AUDIO
    TITLE "0:"
    INDEX 01 08:23:57
  TRACK 412 AUDIO
    TITLE "30:cjc135_3959"
    INDEX 01 08:24:35
  TRACK 413 AUDIO
    TITLE "0:"
    INDEX 01 08:27:51
  TRACK 414 AUDIO
    TITLE "31:cjc135_3960"
    INDEX 01 08:28:00
  TRACK 415 AUDIO
    TITLE "0:"
    INDEX 01 08:30:36
  TRACK 416 AUDIO
    TITLE "32:cjc135_3961"
    INDEX 01 08:30:61
  TRACK 417 AUDIO
    TITLE "0:"
    INDEX 01 08:33:24
  TRACK 418 AUDIO
    TITLE "29:cjc135_3962"
    INDEX 01 08:34:30
  TRACK 419 AUDIO
    TITLE "0:"
    INDEX 01 08:35:33
  TRACK 420 AUDIO
    TITLE "30:cjc135_3963"
    INDEX 01 08:36:07
  TRACK 421 AUDIO
    TITLE "0:"
    INDEX 01 08:38:00
  TRACK 422 AUDIO
    TITLE "31:cjc135_3964"
    INDEX 01 08:38:28
  TRACK 423 AUDIO
    TITLE "0:"
    INDEX 01 08:39:58
  TRACK 424 AUDIO
    TITLE "32:cjc135_3965"
    INDEX 01 08:40:07
  TRACK 425 AUDIO
    TITLE "0:"
    INDEX 01 08:41:40
  TRACK 426 AUDIO
    TITLE "29:cjc135_3966"
    INDEX 01 08:42:37
  TRACK 427 AUDIO
    TITLE "0:"
    INDEX 01 08:43:48
  TRACK 428 AUDIO
    TITLE "30:cjc135_3967"
    INDEX 01 08:44:24
  TRACK 429 AUDIO
    TITLE "0:"
    INDEX 01 08:47:36
  TRACK 430 AUDIO
    TITLE "31:cjc135_3968"
    INDEX 01 08:47:62
  TRACK 431 AUDIO
    TITLE "0:"
    INDEX 01 08:50:21
  TRACK 432 AUDIO
    TITLE "32:cjc135_3969"
    INDEX 01 08:50:44
  TRACK 433 AUDIO
    TITLE "0:"
    INDEX 01 08:53:04
  TRACK 434 AUDIO
    TITLE "29:cjc135_3970"
    INDEX 01 08:54:03
  TRACK 435 AUDIO
    TITLE "0:"
    INDEX 01 08:54:72
  TRACK 436 AUDIO
    TITLE "30:cjc135_3971"
    INDEX 01 08:55:48
  TRACK 437 AUDIO
    TITLE "0:"
    INDEX 01 08:57:72
  TRACK 438 AUDIO
    TITLE "31:cjc135_3972"
    INDEX 01 08:58:24
  TRACK 439 AUDIO
    TITLE "0:"
    INDEX 01 09:00:04
  TRACK 440 AUDIO
    TITLE "32:cjc135_3973"
    INDEX 01 09:00:27
  TRACK 441 AUDIO
    TITLE "0:"
    INDEX 01 09:02:05
  TRACK 442 AUDIO
    TITLE "29:cjc135_3974"
    INDEX 01 09:03:04
  TRACK 443 AUDIO
    TITLE "0:"
    INDEX 01 09:03:73
  TRACK 444 AUDIO
    TITLE "30:cjc135_3975"
    INDEX 01 09:04:47
  TRACK 445 AUDIO
    TITLE "0:"
    INDEX 01 09:06:47
  TRACK 446 AUDIO
    TITLE "31:cjc135_3976"
    INDEX 01 09:06:73
  TRACK 447 AUDIO
    TITLE "0:"
    INDEX 01 09:08:54
  TRACK 448 AUDIO
    TITLE "32:cjc135_3977"
    INDEX 01 09:09:05
  TRACK 449 AUDIO
    TITLE "0:"
    INDEX 01 09:10:63
  TRACK 450 AUDIO
    TITLE "29:cjc135_3978"
    INDEX 01 09:11:62
  TRACK 451 AUDIO
    TITLE "0:"
    INDEX 01 09:12:60
  TRACK 452 AUDIO
    TITLE "30:cjc135_3979"
    INDEX 01 09:13:34
  TRACK 453 AUDIO
    TITLE "0:"
    INDEX 01 09:15:31
  TRACK 454 AUDIO
    TITLE "31:cjc135_3980"
    INDEX 01 09:15:54
  TRACK 455 AUDIO
    TITLE "0:"
    INDEX 01 09:17:35
  TRACK 456 AUDIO
    TITLE "32:cjc135_3981"
    INDEX 01 09:17:59
  TRACK 457 AUDIO
    TITLE "0:"
    INDEX 01 09:19:38
  TRACK 458 AUDIO
    TITLE "29:cjc135_3982"
    INDEX 01 09:20:40
  TRACK 459 AUDIO
    TITLE "0:"
    INDEX 01 09:21:41
  TRACK 460 AUDIO
    TITLE "30:cjc135_3983"
    INDEX 01 09:22:13
  TRACK 461 AUDIO
    TITLE "0:"
    INDEX 01 09:25:60
  TRACK 462 AUDIO
    TITLE "31:cjc135_3984"
    INDEX 01 09:26:09
  TRACK 463 AUDIO
    TITLE "0:"
    INDEX 01 09:28:39
  TRACK 464 AUDIO
    TITLE "32:cjc135_3985"
    INDEX 01 09:28:63
  TRACK 465 AUDIO
    TITLE "0:"
    INDEX 01 09:31:14
  TRACK 466 AUDIO
    TITLE "29:cjc135_3986"
    INDEX 01 09:32:15
  TRACK 467 AUDIO
    TITLE "0:"
    INDEX 01 09:33:27
  TRACK 468 AUDIO
    TITLE "30:cjc135_3987"
    INDEX 01 09:34:01
  TRACK 469 AUDIO
    TITLE "0:"
    INDEX 01 09:36:54
  TRACK 470 AUDIO
    TITLE "31:cjc135_3988"
    INDEX 01 09:37:07
  TRACK 471 AUDIO
    TITLE "0:"
    INDEX 01 09:39:33
  TRACK 472 AUDIO
    TITLE "32:cjc135_3989"
    INDEX 01 09:39:61
  TRACK 473 AUDIO
    TITLE "0:"
    INDEX 01 09:42:12
  TRACK 474 AUDIO
    TITLE "29:cjc135_3990"
    INDEX 01 09:43:11
  TRACK 475 AUDIO
    TITLE "0:"
    INDEX 01 09:44:17
  TRACK 476 AUDIO
    TITLE "30:cjc135_3991"
    INDEX 01 09:44:66
  TRACK 477 AUDIO
    TITLE "0:"
    INDEX 01 09:46:65
  TRACK 478 AUDIO
    TITLE "31:cjc135_3992"
    INDEX 01 09:47:11
  TRACK 479 AUDIO
    TITLE "0:"
    INDEX 01 09:48:48
  TRACK 480 AUDIO
    TITLE "32:cjc135_3993"
    INDEX 01 09:48:71
  TRACK 481 AUDIO
    TITLE "0:"
    INDEX 01 09:50:33
  TRACK 482 AUDIO
    TITLE "29:cjc135_3994"
    INDEX 01 09:51:32
  TRACK 483 AUDIO
    TITLE "0:"
    INDEX 01 09:52:34
  TRACK 484 AUDIO
    TITLE "30:cjc135_3995"
    INDEX 01 09:53:08
  TRACK 485 AUDIO
    TITLE "0:"
    INDEX 01 09:55:30
  TRACK 486 AUDIO
    TITLE "31:cjc135_3996"
    INDEX 01 09:55:56
  TRACK 487 AUDIO
    TITLE "0:"
    INDEX 01 09:57:33
  TRACK 488 AUDIO
    TITLE "32:cjc135_3997"
    INDEX 01 09:57:58
  TRACK 489 AUDIO
    TITLE "0:"
    INDEX 01 09:59:36
  TRACK 490 AUDIO
    TITLE "29:cjc135_3998"
    INDEX 01 10:00:35
  TRACK 491 AUDIO
    TITLE "0:"
    INDEX 01 10:01:39
  TRACK 492 AUDIO
    TITLE "30:cjc135_3999"
    INDEX 01 10:02:13
  TRACK 493 AUDIO
    TITLE "0:"
    INDEX 01 10:03:59
  TRACK 494 AUDIO
    TITLE "31:cjc135_4000"
    INDEX 01 10:04:10
  TRACK 495 AUDIO
    TITLE "0:"
    INDEX 01 10:05:62
  TRACK 496 AUDIO
    TITLE "32:cjc135_4001"
    INDEX 01 10:06:14
  TRACK 497 AUDIO
    TITLE "0:"
    INDEX 01 10:07:69
  TRACK 498 AUDIO
    TITLE "29:cjc135_4002"
    INDEX 01 10:08:70
  TRACK 499 AUDIO
    TITLE "0:"
    INDEX 01 10:10:00
  TRACK 500 AUDIO
    TITLE "30:cjc135_4003"
    INDEX 01 10:10:49
  TRACK 501 AUDIO
    TITLE "0:"
    INDEX 01 10:13:16
  TRACK 502 AUDIO
    TITLE "31:cjc135_4004"
    INDEX 01 10:13:42
  TRACK 503 AUDIO
    TITLE "0:"
    INDEX 01 10:15:50
  TRACK 504 AUDIO
    TITLE "32:cjc135_4005"
    INDEX 01 10:15:74
  TRACK 505 AUDIO
    TITLE "0:"
    INDEX 01 10:18:08
  TRACK 506 AUDIO
    TITLE "29:cjc135_4006"
    INDEX 01 10:19:07
  TRACK 507 AUDIO
    TITLE "0:"
    INDEX 01 10:20:07
  TRACK 508 AUDIO
    TITLE "30:cjc135_4007"
    INDEX 01 10:20:58
  TRACK 509 AUDIO
    TITLE "0:"
    INDEX 01 10:24:06
  TRACK 510 AUDIO
    TITLE "31:cjc135_4008"
    INDEX 01 10:24:32
  TRACK 511 AUDIO
    TITLE "0:"
    INDEX 01 10:27:03
  TRACK 512 AUDIO
    TITLE "32:cjc135_4009"
    INDEX 01 10:27:28
  TRACK 513 AUDIO
    TITLE "0:"
    INDEX 01 10:29:72
  TRACK 514 AUDIO
    TITLE "29:cjc135_4010"
    INDEX 01 10:30:72
  TRACK 515 AUDIO
    TITLE "0:"
    INDEX 01 10:32:00
  TRACK 516 AUDIO
    TITLE "30:cjc135_4011"
    INDEX 01 10:32:49
  TRACK 517 AUDIO
    TITLE "0:"
    INDEX 01 10:35:22
  TRACK 518 AUDIO
    TITLE "31:cjc135_4012"
    INDEX 01 10:35:49
  TRACK 519 AUDIO
    TITLE "0:"
    INDEX 01 10:37:29
  TRACK 520 AUDIO
    TITLE "32:cjc135_4013"
    INDEX 01 10:37:54
  TRACK 521 AUDIO
    TITLE "0:"
    INDEX 01 10:39:33
  TRACK 522 AUDIO
    TITLE "29:cjc135_4014"
    INDEX 01 10:40:33
  TRACK 523 AUDIO
    TITLE "0:"
    INDEX 01 10:41:42
  TRACK 524 AUDIO
    TITLE "30:cjc135_4015"
    INDEX 01 10:42:20
  TRACK 525 AUDIO
    TITLE "0:"
    INDEX 01 10:45:05
  TRACK 526 AUDIO
    TITLE "31:cjc135_4016"
    INDEX 01 10:45:30
  TRACK 527 AUDIO
    TITLE "0:"
    INDEX 01 10:47:43
  TRACK 528 AUDIO
    TITLE "32:cjc135_4017"
    INDEX 01 10:47:70
  TRACK 529 AUDIO
    TITLE "0:"
    INDEX 01 10:50:08
  TRACK 530 AUDIO
    TITLE "29:cjc135_4018"
    INDEX 01 10:51:07
  TRACK 531 AUDIO
    TITLE "0:"
    INDEX 01 10:52:24
  TRACK 532 AUDIO
    TITLE "30:cjc135_4019"
    INDEX 01 10:52:69
  TRACK 533 AUDIO
    TITLE "0:"
    INDEX 01 10:54:54
  TRACK 534 AUDIO
    TITLE "31:cjc135_4020"
    INDEX 01 10:55:05
  TRACK 535 AUDIO
    TITLE "0:"
    INDEX 01 10:56:46
  TRACK 536 AUDIO
    TITLE "32:cjc135_4021"
    INDEX 01 10:56:69
  TRACK 537 AUDIO
    TITLE "0:"
    INDEX 01 10:58:35
  TRACK 538 AUDIO
    TITLE "29:cjc135_4022"
    INDEX 01 10:59:34
  TRACK 539 AUDIO
    TITLE "0:"
    INDEX 01 11:00:43
  TRACK 540 AUDIO
    TITLE "30:cjc135_4023"
    INDEX 01 11:01:17
  TRACK 541 AUDIO
    TITLE "0:"
    INDEX 01 11:02:56
  TRACK 542 AUDIO
    TITLE "31:cjc135_4024"
    INDEX 01 11:03:10
  TRACK 543 AUDIO
    TITLE "0:"
    INDEX 01 11:05:09
  TRACK 544 AUDIO
    TITLE "32:cjc135_4025"
    INDEX 01 11:05:37
  TRACK 545 AUDIO
    TITLE "0:"
    INDEX 01 11:07:39
  TRACK 546 AUDIO
    TITLE "29:cjc135_4026"
    INDEX 01 11:08:39
  TRACK 547 AUDIO
    TITLE "0:"
    INDEX 01 11:09:40
  TRACK 548 AUDIO
    TITLE "30:cjc135_4027"
    INDEX 01 11:10:14
  TRACK 549 AUDIO
    TITLE "0:"
    INDEX 01 11:12:66
  TRACK 550 AUDIO
    TITLE "31:cjc135_4028"
    INDEX 01 11:13:15
  TRACK 551 AUDIO
    TITLE "0:"
    INDEX 01 11:15:06
  TRACK 552 AUDIO
    TITLE "32:cjc135_4029"
    INDEX 01 11:15:29
  TRACK 553 AUDIO
    TITLE "0:"
    INDEX 01 11:17:18
  TRACK 554 AUDIO
    TITLE "29:cjc135_4030"
    INDEX 01 11:18:20
  TRACK 555 AUDIO
    TITLE "0:"
    INDEX 01 11:19:39
  TRACK 556 AUDIO
    TITLE "30:cjc135_4031"
    INDEX 01 11:20:13
  TRACK 557 AUDIO
    TITLE "0:"
    INDEX 01 11:22:55
  TRACK 558 AUDIO
    TITLE "31:cjc135_4032"
    INDEX 01 11:23:05
  TRACK 559 AUDIO
    TITLE "0:"
    INDEX 01 11:25:51
  TRACK 560 AUDIO
    TITLE "32:cjc135_4033"
    INDEX 01 11:26:02
  TRACK 561 AUDIO
    TITLE "0:"
    INDEX 01 11:28:49
  TRACK 562 AUDIO
    TITLE "29:cjc135_4034"
    INDEX 01 11:29:49
  TRACK 563 AUDIO
    TITLE "0:"
    INDEX 01 11:30:50
  TRACK 564 AUDIO
    TITLE "30:cjc135_4035"
    INDEX 01 11:31:26
  TRACK 565 AUDIO
    TITLE "0:"
    INDEX 01 11:33:02
  TRACK 566 AUDIO
    TITLE "31:cjc135_4036"
    INDEX 01 11:33:27
  TRACK 567 AUDIO
    TITLE "0:"
    INDEX 01 11:34:68
  TRACK 568 AUDIO
    TITLE "32:cjc135_4037"
    INDEX 01 11:35:16
  TRACK 569 AUDIO
    TITLE "0:"
    INDEX 01 11:36:59
  TRACK 570 AUDIO
    TITLE "29:cjc135_4038"
    INDEX 01 11:37:56
  TRACK 571 AUDIO
    TITLE "0:"
    INDEX 01 11:38:71
  TRACK 572 AUDIO
    TITLE "30:cjc135_4039"
    INDEX 01 11:39:45
  TRACK 573 AUDIO
    TITLE "0:"
    INDEX 01 11:43:06
  TRACK 574 AUDIO
    TITLE "31:cjc135_4040"
    INDEX 01 11:43:29
  TRACK 575 AUDIO
    TITLE "0:"
    INDEX 01 11:46:08
  TRACK 576 AUDIO
    TITLE "32:cjc135_4041"
    INDEX 01 11:46:34
  TRACK 577 AUDIO
    TITLE "0:"
    INDEX 01 11:49:14
  TRACK 578 AUDIO
    TITLE "29:cjc135_4042"
    INDEX 01 11:50:16
  TRACK 579 AUDIO
    TITLE "0:"
    INDEX 01 11:51:15
  TRACK 580 AUDIO
    TITLE "30:cjc135_4043"
    INDEX 01 11:51:66
  TRACK 581 AUDIO
    TITLE "0:"
    INDEX 01 11:54:47
  TRACK 582 AUDIO
    TITLE "31:cjc135_4044"
    INDEX 01 11:54:72
  TRACK 583 AUDIO
    TITLE "0:"
    INDEX 01 11:57:33
  TRACK 584 AUDIO
    TITLE "32:cjc135_4045"
    INDEX 01 11:57:57
  TRACK 585 AUDIO
    TITLE "0:"
    INDEX 01 12:00:18
  TRACK 586 AUDIO
    TITLE "29:cjc135_4046"
    INDEX 01 12:01:18
  TRACK 587 AUDIO
    TITLE "0:"
    INDEX 01 12:02:09
  TRACK 588 AUDIO
    TITLE "30:cjc135_4047"
    INDEX 01 12:02:60
  TRACK 589 AUDIO
    TITLE "0:"
    INDEX 01 12:04:39
  TRACK 590 AUDIO
    TITLE "31:cjc135_4048"
    INDEX 01 12:04:65
  TRACK 591 AUDIO
    TITLE "0:"
    INDEX 01 12:06:70
  TRACK 592 AUDIO
    TITLE "32:cjc135_4049"
    INDEX 01 12:07:20
  TRACK 593 AUDIO
    TITLE "0:"
    INDEX 01 12:09:23
  TRACK 594 AUDIO
    TITLE "29:cjc135_4050"
    INDEX 01 12:10:24
  TRACK 595 AUDIO
    TITLE "0:"
    INDEX 01 12:11:24
  TRACK 596 AUDIO
    TITLE "30:cjc135_4051"
    INDEX 01 12:11:73
  TRACK 597 AUDIO
    TITLE "0:"
    INDEX 01 12:14:30
  TRACK 598 AUDIO
    TITLE "31:cjc135_4052"
    INDEX 01 12:14:55
  TRACK 599 AUDIO
    TITLE "0:"
    INDEX 01 12:16:54
  TRACK 600 AUDIO
    TITLE "32:cjc135_4053"
    INDEX 01 12:17:05
  TRACK 601 AUDIO
    TITLE "0:"
    INDEX 01 12:19:04
  TRACK 602 AUDIO
    TITLE "29:cjc135_4054"
    INDEX 01 12:20:05
  TRACK 603 AUDIO
    TITLE "0:"
    INDEX 01 12:21:07
  TRACK 604 AUDIO
    TITLE "30:cjc135_4055"
    INDEX 01 12:21:57
  TRACK 605 AUDIO
    TITLE "0:"
    INDEX 01 12:24:36
  TRACK 606 AUDIO
    TITLE "31:cjc135_4056"
    INDEX 01 12:24:62
  TRACK 607 AUDIO
    TITLE "0:"
    INDEX 01 12:26:70
  TRACK 608 AUDIO
    TITLE "32:cjc135_4057"
    INDEX 01 12:27:19
  TRACK 609 AUDIO
    TITLE "0:"
    INDEX 01 12:29:28
  TRACK 610 AUDIO
    TITLE "29:cjc135_4058"
    INDEX 01 12:30:27
  TRACK 611 AUDIO
    TITLE "0:"
    INDEX 01 12:31:23
  TRACK 612 AUDIO
    TITLE "30:cjc135_4059"
    INDEX 01 12:31:74
  TRACK 613 AUDIO
    TITLE "0:"
    INDEX 01 12:33:57
  TRACK 614 AUDIO
    TITLE "31:cjc135_4060"
    INDEX 01 12:34:09
  TRACK 615 AUDIO
    TITLE "0:"
    INDEX 01 12:35:26
  TRACK 616 AUDIO
    TITLE "32:cjc135_4061"
    INDEX 01 12:35:52
  TRACK 617 AUDIO
    TITLE "0:"
    INDEX 01 12:36:73
  TRACK 618 AUDIO
    TITLE "29:cjc135_4062"
    INDEX 01 12:37:72
  TRACK 619 AUDIO
    TITLE "0:"
    INDEX 01 12:38:74
  TRACK 620 AUDIO
    TITLE "30:cjc135_4063"
    INDEX 01 12:39:48
  TRACK 621 AUDIO
    TITLE "0:"
    INDEX 01 12:41:35
  TRACK 622 AUDIO
    TITLE "31:cjc135_4064"
    INDEX 01 12:41:60
  TRACK 623 AUDIO
    TITLE "0:"
    INDEX 01 12:43:43
  TRACK 624 AUDIO
    TITLE "32:cjc135_4065"
    INDEX 01 12:43:67
  TRACK 625 AUDIO
    TITLE "0:"
    INDEX 01 12:45:48
  TRACK 626 AUDIO
    TITLE "29:cjc135_4066"
    INDEX 01 12:46:50
  TRACK 627 AUDIO
    TITLE "0:"
    INDEX 01 12:47:55
  TRACK 628 AUDIO
    TITLE "30:cjc135_4067"
    INDEX 01 12:48:29
  TRACK 629 AUDIO
    TITLE "0:"
    INDEX 01 12:52:23
  TRACK 630 AUDIO
    TITLE "31:cjc135_4068"
    INDEX 01 12:52:46
  TRACK 631 AUDIO
    TITLE "0:"
    INDEX 01 12:54:67
  TRACK 632 AUDIO
    TITLE "32:cjc135_4069"
    INDEX 01 12:55:17
  TRACK 633 AUDIO
    TITLE "0:"
    INDEX 01 12:57:36
  TRACK 634 AUDIO
    TITLE "29:cjc135_4070"
    INDEX 01 12:58:37
  TRACK 635 AUDIO
    TITLE "0:"
    INDEX 01 12:59:48
  TRACK 636 AUDIO
    TITLE "30:cjc135_4071"
    INDEX 01 13:00:22
  TRACK 637 AUDIO
    TITLE "0:"
    INDEX 01 13:02:60
  TRACK 638 AUDIO
    TITLE "31:cjc135_4072"
    INDEX 01 13:03:11
  TRACK 639 AUDIO
    TITLE "0:"
    INDEX 01 13:05:10
  TRACK 640 AUDIO
    TITLE "32:cjc135_4073"
    INDEX 01 13:05:35
  TRACK 641 AUDIO
    TITLE "0:"
    INDEX 01 13:07:32
  TRACK 642 AUDIO
    TITLE "29:cjc135_4074"
    INDEX 01 13:08:36
  TRACK 643 AUDIO
    TITLE "0:"
    INDEX 01 13:09:41
  TRACK 644 AUDIO
    TITLE "30:cjc135_4075"
    INDEX 01 13:10:15
  TRACK 645 AUDIO
    TITLE "0:"
    INDEX 01 13:13:05
  TRACK 646 AUDIO
    TITLE "31:cjc135_4076"
    INDEX 01 13:13:33
  TRACK 647 AUDIO
    TITLE "0:"
    INDEX 01 13:15:47
  TRACK 648 AUDIO
    TITLE "32:cjc135_4077"
    INDEX 01 13:16:00
  TRACK 649 AUDIO
    TITLE "0:"
    INDEX 01 13:18:18
  TRACK 650 AUDIO
    TITLE "29:cjc135_4078"
    INDEX 01 13:19:18
  TRACK 651 AUDIO
    TITLE "0:"
    INDEX 01 13:20:23
  TRACK 652 AUDIO
    TITLE "30:cjc135_4079"
    INDEX 01 13:21:03
  TRACK 653 AUDIO
    TITLE "0:"
    INDEX 01 13:23:23
  TRACK 654 AUDIO
    TITLE "31:cjc135_4080"
    INDEX 01 13:23:47
  TRACK 655 AUDIO
    TITLE "0:"
    INDEX 01 13:26:10
  TRACK 656 AUDIO
    TITLE "32:cjc135_4081"
    INDEX 01 13:26:35
  TRACK 657 AUDIO
    TITLE "0:"
    INDEX 01 13:28:72
  TRACK 658 AUDIO
    TITLE "29:cjc135_4082"
    INDEX 01 13:29:73
  TRACK 659 AUDIO
    TITLE "0:"
    INDEX 01 13:31:03
  TRACK 660 AUDIO
    TITLE "30:cjc135_4083"
    INDEX 01 13:31:52
  TRACK 661 AUDIO
    TITLE "0:"
    INDEX 01 13:34:35
  TRACK 662 AUDIO
    TITLE "31:cjc135_4084"
    INDEX 01 13:34:60
  TRACK 663 AUDIO
    TITLE "0:"
    INDEX 01 13:37:39
  TRACK 664 AUDIO
    TITLE "32:cjc135_4085"
    INDEX 01 13:37:63
  TRACK 665 AUDIO
    TITLE "0:"
    INDEX 01 13:40:41
  TRACK 666 AUDIO
    TITLE "29:cjc135_4086"
    INDEX 01 13:41:39
  TRACK 667 AUDIO
    TITLE "0:"
    INDEX 01 13:42:48
  TRACK 668 AUDIO
    TITLE "30:cjc135_4087"
    INDEX 01 13:43:24
  TRACK 669 AUDIO
    TITLE "0:"
    INDEX 01 13:45:09
  TRACK 670 AUDIO
    TITLE "31:cjc135_4088"
    INDEX 01 13:45:33
  TRACK 671 AUDIO
    TITLE "0:"
    INDEX 01 13:47:18
  TRACK 672 AUDIO
    TITLE "32:cjc135_4089"
    INDEX 01 13:47:41
  TRACK 673 AUDIO
    TITLE "0:"
    INDEX 01 13:49:27
  TRACK 674 AUDIO
    TITLE "29:cjc135_4090"
    INDEX 01 13:50:28
  TRACK 675 AUDIO
    TITLE "0:"
    INDEX 01 13:51:39
  TRACK 676 AUDIO
    TITLE "30:cjc135_4091"
    INDEX 01 13:52:15
  TRACK 677 AUDIO
    TITLE "0:"
    INDEX 01 13:54:71
  TRACK 678 AUDIO
    TITLE "31:cjc135_4092"
    INDEX 01 13:55:19
  TRACK 679 AUDIO
    TITLE "0:"
    INDEX 01 13:57:69
  TRACK 680 AUDIO
    TITLE "32:cjc135_4093"
    INDEX 01 13:58:20
  TRACK 681 AUDIO
    TITLE "0:"
    INDEX 01 14:00:70
  TRACK 682 AUDIO
    TITLE "29:cjc135_4094"
    INDEX 01 14:01:69
  TRACK 683 AUDIO
    TITLE "0:"
    INDEX 01 14:02:65
  TRACK 684 AUDIO
    TITLE "30:cjc135_4095"
    INDEX 01 14:03:39
  TRACK 685 AUDIO
    TITLE "0:"
    INDEX 01 14:05:51
  TRACK 686 AUDIO
    TITLE "31:cjc135_4096"
    INDEX 01 14:06:02
  TRACK 687 AUDIO
    TITLE "0:"
    INDEX 01 14:08:08
  TRACK 688 AUDIO
    TITLE "32:cjc135_4097"
    INDEX 01 14:08:34
  TRACK 689 AUDIO
    TITLE "0:"
    INDEX 01 14:10:41
  TRACK 690 AUDIO
    TITLE "29:cjc135_4098"
    INDEX 01 14:11:40
  TRACK 691 AUDIO
    TITLE "0:"
    INDEX 01 14:12:53
  TRACK 692 AUDIO
    TITLE "30:cjc135_4099"
    INDEX 01 14:13:29
  TRACK 693 AUDIO
    TITLE "0:"
    INDEX 01 14:15:50
  TRACK 694 AUDIO
    TITLE "31:cjc135_4100"
    INDEX 01 14:16:00
  TRACK 695 AUDIO
    TITLE "0:"
    INDEX 01 14:18:28
  TRACK 696 AUDIO
    TITLE "32:cjc135_4101"
    INDEX 01 14:18:52
  TRACK 697 AUDIO
    TITLE "0:"
    INDEX 01 14:21:05
  TRACK 698 AUDIO
    TITLE "29:cjc135_4102"
    INDEX 01 14:22:05
  TRACK 699 AUDIO
    TITLE "0:"
    INDEX 01 14:23:37
  TRACK 700 AUDIO
    TITLE "30:cjc135_4103"
    INDEX 01 14:24:11
  TRACK 701 AUDIO
    TITLE "0:"
    INDEX 01 14:25:68
  TRACK 702 AUDIO
    TITLE "31:cjc135_4104"
    INDEX 01 14:26:18
  TRACK 703 AUDIO
    TITLE "0:"
    INDEX 01 14:28:23
  TRACK 704 AUDIO
    TITLE "32:cjc135_4105"
    INDEX 01 14:28:46
  TRACK 705 AUDIO
    TITLE "0:"
    INDEX 01 14:30:51
  TRACK 706 AUDIO
    TITLE "29:cjc135_4106"
    INDEX 01 14:31:52
  TRACK 707 AUDIO
    TITLE "0:"
    INDEX 01 14:32:52
  TRACK 708 AUDIO
    TITLE "30:cjc135_4107"
    INDEX 01 14:33:28
  TRACK 709 AUDIO
    TITLE "0:"
    INDEX 01 14:35:66
  TRACK 710 AUDIO
    TITLE "31:cjc135_4108"
    INDEX 01 14:36:18
  TRACK 711 AUDIO
    TITLE "0:"
    INDEX 01 14:38:06
  TRACK 712 AUDIO
    TITLE "32:cjc135_4109"
    INDEX 01 14:38:33
  TRACK 713 AUDIO
    TITLE "0:"
    INDEX 01 14:40:20
  TRACK 714 AUDIO
    TITLE "29:cjc135_4110"
    INDEX 01 14:41:21
  TRACK 715 AUDIO
    TITLE "0:"
    INDEX 01 14:42:29
  TRACK 716 AUDIO
    TITLE "30:cjc135_4111"
    INDEX 01 14:43:03
  TRACK 717 AUDIO
    TITLE "0:"
    INDEX 01 14:45:43
  TRACK 718 AUDIO
    TITLE "31:cjc135_4112"
    INDEX 01 14:45:66
  TRACK 719 AUDIO
    TITLE "0:"
    INDEX 01 14:48:22
  TRACK 720 AUDIO
    TITLE "32:cjc135_4113"
    INDEX 01 14:48:45
  TRACK 721 AUDIO
    TITLE "0:"
    INDEX 01 14:50:73
  TRACK 722 AUDIO
    TITLE "29:cjc135_4114"
    INDEX 01 14:51:73
  TRACK 723 AUDIO
    TITLE "0:"
    INDEX 01 14:53:03
  TRACK 724 AUDIO
    TITLE "30:cjc135_4115"
    INDEX 01 14:53:52
  TRACK 725 AUDIO
    TITLE "0:"
    INDEX 01 14:56:68
  TRACK 726 AUDIO
    TITLE "31:cjc135_4116"
    INDEX 01 14:57:21
  TRACK 727 AUDIO
    TITLE "0:"
    INDEX 01 14:59:72
  TRACK 728 AUDIO
    TITLE "32:cjc135_4117"
    INDEX 01 15:00:25
  TRACK 729 AUDIO
    TITLE "0:"
    INDEX 01 15:03:05
  TRACK 730 AUDIO
    TITLE "29:cjc135_4118"
    INDEX 01 15:04:05
  TRACK 731 AUDIO
    TITLE "0:"
    INDEX 01 15:05:12
  TRACK 732 AUDIO
    TITLE "30:cjc135_4119"
    INDEX 01 15:05:59
  TRACK 733 AUDIO
    TITLE "0:"
    INDEX 01 15:08:09
  TRACK 734 AUDIO
    TITLE "31:cjc135_4120"
    INDEX 01 15:08:32
  TRACK 735 AUDIO
    TITLE "0:"
    INDEX 01 15:10:43
  TRACK 736 AUDIO
    TITLE "32:cjc135_4121"
    INDEX 01 15:10:66
  TRACK 737 AUDIO
    TITLE "0:"
    INDEX 01 15:13:02
  TRACK 738 AUDIO
    TITLE "29:cjc135_4122"
    INDEX 01 15:14:01
  TRACK 739 AUDIO
    TITLE "0:"
    INDEX 01 15:15:13
  TRACK 740 AUDIO
    TITLE "30:cjc135_4123"
    INDEX 01 15:15:62
  TRACK 741 AUDIO
    TITLE "0:"
    INDEX 01 15:17:64
  TRACK 742 AUDIO
    TITLE "31:cjc135_4124"
    INDEX 01 15:18:15
  TRACK 743 AUDIO
    TITLE "0:"
    INDEX 01 15:20:18
  TRACK 744 AUDIO
    TITLE "32:cjc135_4125"
    INDEX 01 15:20:43
  TRACK 745 AUDIO
    TITLE "0:"
    INDEX 01 15:22:44
  TRACK 746 AUDIO
    TITLE "29:cjc135_4126"
    INDEX 01 15:23:45
  TRACK 747 AUDIO
    TITLE "0:"
    INDEX 01 15:24:53
  TRACK 748 AUDIO
    TITLE "30:cjc135_4127"
    INDEX 01 15:25:27
  TRACK 749 AUDIO
    TITLE "0:"
    INDEX 01 15:28:62
  TRACK 750 AUDIO
    TITLE "31:cjc135_4128"
    INDEX 01 15:29:15
  TRACK 751 AUDIO
    TITLE "0:"
    INDEX 01 15:31:53
  TRACK 752 AUDIO
    TITLE "32:cjc135_4129"
    INDEX 01 15:32:03
  TRACK 753 AUDIO
    TITLE "0:"
    INDEX 01 15:34:39
  TRACK 754 AUDIO
    TITLE "29:cjc135_4130"
    INDEX 01 15:35:39
  TRACK 755 AUDIO
    TITLE "0:"
    INDEX 01 15:36:36
  TRACK 756 AUDIO
    TITLE "30:cjc135_4131"
    INDEX 01 15:37:10
  TRACK 757 AUDIO
    TITLE "0:"
    INDEX 01 15:39:09
  TRACK 758 AUDIO
    TITLE "31:cjc135_4132"
    INDEX 01 15:39:37
  TRACK 759 AUDIO
    TITLE "0:"
    INDEX 01 15:40:63
  TRACK 760 AUDIO
    TITLE "32:cjc135_4133"
    INDEX 01 15:41:10
  TRACK 761 AUDIO
    TITLE "0:"
    INDEX 01 15:42:37
  TRACK 762 AUDIO
    TITLE "29:cjc135_4134"
    INDEX 01 15:43:36
  TRACK 763 AUDIO
    TITLE "0:"
    INDEX 01 15:44:46
  TRACK 764 AUDIO
    TITLE "30:cjc135_4135"
    INDEX 01 15:45:21
  TRACK 765 AUDIO
    TITLE "0:"
    INDEX 01 15:47:65
  TRACK 766 AUDIO
    TITLE "31:cjc135_4136"
    INDEX 01 15:48:14
  TRACK 767 AUDIO
    TITLE "0:"
    INDEX 01 15:50:58
  TRACK 768 AUDIO
    TITLE "32:cjc135_4137"
    INDEX 01 15:51:06
  TRACK 769 AUDIO
    TITLE "0:"
    INDEX 01 15:53:50
  TRACK 770 AUDIO
    TITLE "29:cjc135_4138"
    INDEX 01 15:54:50
  TRACK 771 AUDIO
    TITLE "0:"
    INDEX 01 15:55:67
  TRACK 772 AUDIO
    TITLE "30:cjc135_4139"
    INDEX 01 15:56:39
  TRACK 773 AUDIO
    TITLE "0:"
    INDEX 01 15:58:38
  TRACK 774 AUDIO
    TITLE "31:cjc135_4140"
    INDEX 01 15:58:61
  TRACK 775 AUDIO
    TITLE "0:"
    INDEX 01 16:00:37
  TRACK 776 AUDIO
    TITLE "32:cjc135_4141"
    INDEX 01 16:00:60
  TRACK 777 AUDIO
    TITLE "0:"
    INDEX 01 16:02:34
  TRACK 778 AUDIO
    TITLE "29:cjc135_4142"
    INDEX 01 16:03:33
  TRACK 779 AUDIO
    TITLE "0:"
    INDEX 01 16:04:31
  TRACK 780 AUDIO
    TITLE "30:cjc135_4143"
    INDEX 01 16:05:05
  TRACK 781 AUDIO
    TITLE "0:"
    INDEX 01 16:07:62
  TRACK 782 AUDIO
    TITLE "31:cjc135_4144"
    INDEX 01 16:08:15
  TRACK 783 AUDIO
    TITLE "0:"
    INDEX 01 16:10:16
  TRACK 784 AUDIO
    TITLE "32:cjc135_4145"
    INDEX 01 16:10:39
  TRACK 785 AUDIO
    TITLE "0:"
    INDEX 01 16:12:42
  TRACK 786 AUDIO
    TITLE "29:cjc135_4146"
    INDEX 01 16:13:39
  TRACK 787 AUDIO
    TITLE "0:"
    INDEX 01 16:14:51
  TRACK 788 AUDIO
    TITLE "30:cjc135_4147"
    INDEX 01 16:15:25
  TRACK 789 AUDIO
    TITLE "0:"
    INDEX 01 16:18:41
  TRACK 790 AUDIO
    TITLE "31:cjc135_4148"
    INDEX 01 16:18:62
  TRACK 791 AUDIO
    TITLE "0:"
    INDEX 01 16:21:64
  TRACK 792 AUDIO
    TITLE "32:cjc135_4149"
    INDEX 01 16:22:15
  TRACK 793 AUDIO
    TITLE "0:"
    INDEX 01 16:25:15
  TRACK 794 AUDIO
    TITLE "29:cjc135_4150"
    INDEX 01 16:26:18
  TRACK 795 AUDIO
    TITLE "0:"
    INDEX 01 16:27:20
  TRACK 796 AUDIO
    TITLE "30:cjc135_4151"
    INDEX 01 16:27:67
  TRACK 797 AUDIO
    TITLE "0:"
    INDEX 01 16:29:48
  TRACK 798 AUDIO
    TITLE "31:cjc135_4152"
    INDEX 01 16:30:01
  TRACK 799 AUDIO
    TITLE "0:"
    INDEX 01 16:31:55
  TRACK 800 AUDIO
    TITLE "32:cjc135_4153"
    INDEX 01 16:32:05
  TRACK 801 AUDIO
    TITLE "0:"
    INDEX 01 16:33:60
